<?xml version="1.0" encoding="utf-8"?>
<!-- Generator: Adobe Illustrator 15.0.0, SVG Export Plug-In . SVG Version: 6.00 Build 0)  -->
<!DOCTYPE svg PUBLIC "-//W3C//DTD SVG 1.1//EN" "http://www.w3.org/Graphics/SVG/1.1/DTD/svg11.dtd">
<svg version="1.1" id="Layer_1" xmlns="http://www.w3.org/2000/svg" xmlns:xlink="http://www.w3.org/1999/xlink" x="0px" y="0px"
	 width="145.391px" height="220.567px" viewBox="0 0 145.391 220.567" enable-background="new 0 0 145.391 220.567"
	 xml:space="preserve">
<g>
	<g>
		<path fill="#58595B" d="M108.861,11.117H36.529c-9.941,0-18,8.059-18,18V191.45c0,9.941,8.059,18,18,18h72.333
			c9.941,0,18-8.059,18-18V29.117C126.861,19.176,118.803,11.117,108.861,11.117z M63.737,28.2h17.917c0.966,0,1.75,0.896,1.75,2
			s-0.784,2-1.75,2H63.737c-0.966,0-1.75-0.896-1.75-2S62.771,28.2,63.737,28.2z M72.695,201.7c-5.799,0-10.5-4.7-10.5-10.5
			c0-5.799,4.701-10.5,10.5-10.5s10.5,4.701,10.5,10.5C83.195,197,78.494,201.7,72.695,201.7z M118.029,176.117H27.362v-132.7
			h90.667V176.117z"/>
	</g>
</g>
</svg>
