<?xml version="1.0" encoding="utf-8"?>
<!-- Generator: Adobe Illustrator 15.0.0, SVG Export Plug-In . SVG Version: 6.00 Build 0)  -->
<!DOCTYPE svg PUBLIC "-//W3C//DTD SVG 1.1//EN" "http://www.w3.org/Graphics/SVG/1.1/DTD/svg11.dtd">
<svg version="1.1" id="Layer_1" xmlns="http://www.w3.org/2000/svg" xmlns:xlink="http://www.w3.org/1999/xlink" x="0px" y="0px"
	 width="155px" height="250px" viewBox="0 0 155 250" enable-background="new 0 0 155 250" xml:space="preserve">
<g>
	<defs>
		<filter id="Adobe_OpacityMaskFilter" filterUnits="userSpaceOnUse" x="10" y="10" width="135" height="134.493">
			
				<feColorMatrix  type="matrix" values="-1 0 0 0 1  0 -1 0 0 1  0 0 -1 0 1  0 0 0 1 0" color-interpolation-filters="sRGB" result="source"/>
			<feFlood  style="flood-color:white;flood-opacity:1" result="back"/>
			<feBlend  in="source" in2="back" mode="normal"/>
		</filter>
	</defs>
	<mask maskUnits="userSpaceOnUse" x="10" y="10" width="135" height="134.493" id="SVGID_1_">
		<g filter="url(#Adobe_OpacityMaskFilter)">
			<path fill="#FFFFFF" d="M145.959,27.575H96.024c-0.356-1.744-1.904-3.057-3.758-3.057H63.118c-1.855,0-3.403,1.313-3.759,3.057
				H9.425v1.529h49.935c0.355,1.744,1.903,3.057,3.759,3.057h29.148c1.854,0,3.401-1.313,3.758-3.057h49.935V27.575z"/>
			<path fill="#FFFFFF" d="M145.959,44.133h-29.224c-0.357-1.744-1.904-3.057-3.759-3.057H42.408c-1.855,0-3.403,1.313-3.759,3.057
				H9.425v1.528h29.225c0.355,1.744,1.903,3.056,3.759,3.056h70.568c1.854,0,3.401-1.313,3.759-3.056h29.224V44.133z"/>
			<path fill="#FFFFFF" d="M145.959,60.881h-18.468c-0.279-1.836-1.856-3.248-3.775-3.248H31.669c-1.921,0-3.498,1.412-3.777,3.248
				H9.425v1.528H27.97c0.427,1.645,1.914,2.866,3.699,2.866h92.047c1.783,0,3.271-1.221,3.698-2.866h18.545V60.881z"/>
			<path fill="#FFFFFF" d="M149.22,126.919H96.024c-0.355-1.744-1.904-3.057-3.758-3.057H63.118c-1.856,0-3.403,1.313-3.759,3.057
				H6.165v1.527h53.194c0.355,1.744,1.903,3.058,3.759,3.058h29.148c1.854,0,3.402-1.313,3.758-3.058h53.195V126.919z"/>
			<path fill="#FFFFFF" d="M149.22,110.361h-32.484c-0.356-1.744-1.904-3.057-3.759-3.057H42.408c-1.855,0-3.403,1.313-3.759,3.057
				H6.165v1.528h32.484c0.355,1.744,1.902,3.057,3.759,3.057h70.568c1.854,0,3.402-1.313,3.759-3.057h32.484V110.361z"/>
			<path fill="#FFFFFF" d="M149.22,93.613h-21.806c-0.428-1.645-1.915-2.866-3.698-2.866H31.669c-1.785,0-3.272,1.221-3.7,2.866
				H6.165v1.528h21.727c0.28,1.836,1.856,3.248,3.777,3.248h92.047c1.919,0,3.496-1.412,3.775-3.248h21.729V93.613z"/>
			<path fill="#FFFFFF" d="M149.22,77.247h-20.212c-0.356-1.744-1.904-3.057-3.759-3.057H30.135c-1.855,0-3.402,1.313-3.758,3.057
				H6.165v1.528h20.212c0.355,1.744,1.902,3.057,3.758,3.057h95.114c1.854,0,3.401-1.313,3.759-3.057h20.212V77.247z"/>
		</g>
	</mask>
	<g mask="url(#SVGID_1_)">
		<ellipse fill="#05C1F1" cx="77.5" cy="77.247" rx="67.5" ry="67.246"/>
		<path fill="#00AAD4" d="M77.5,144.493c37.279,0,67.5-30.106,67.5-67.246H10C10,114.387,40.221,144.493,77.5,144.493z"/>
	</g>
	<g>
		<path fill="#58595B" d="M32.005,189.832c0-1.725-0.448-3.087-1.344-4.092c-0.896-1.003-2.473-1.992-4.731-2.965
			c-4.62-1.601-8.086-3.422-10.396-5.459c-2.311-2.038-3.465-4.892-3.465-8.563c0-3.628,1.344-6.584,4.03-8.866
			c2.686-2.28,6.115-3.421,10.288-3.421c4.232,0,7.672,1.271,10.318,3.817c2.646,2.545,3.928,5.753,3.847,9.625l-0.061,0.184h-8.427
			c0-2.028-0.509-3.671-1.525-4.927c-1.02-1.259-2.453-1.887-4.306-1.887c-1.729,0-3.078,0.522-4.045,1.566s-1.45,2.357-1.45,3.938
			c0,1.46,0.539,2.661,1.618,3.605c1.079,0.941,2.951,1.991,5.617,3.147c4.214,1.419,7.384,3.218,9.511,5.397
			c2.126,2.18,3.189,5.125,3.189,8.836c0,3.832-1.282,6.834-3.847,9.003c-2.564,2.17-5.974,3.254-10.227,3.254
			c-4.234,0-7.902-1.23-11.006-3.696c-3.104-2.461-4.605-5.995-4.503-10.598l0.061-0.183h8.457c0,2.737,0.58,4.704,1.739,5.9
			c1.161,1.195,2.91,1.794,5.252,1.794c1.831,0,3.19-0.486,4.075-1.459C31.563,192.812,32.005,191.494,32.005,189.832z"/>
		<path fill="#58595B" d="M74.06,185.361h0.184l4.794-28.256h8.426l-8.58,44.284h-8.09l-6.259-27.13h-0.183l-6.197,27.13h-8.06
			l-8.579-44.284h8.427l4.793,28.256h0.183l6.411-28.256h6.228L74.06,185.361z"/>
		<path fill="#58595B" d="M98.715,201.39h-8.641v-44.284h8.641V201.39z"/>
		<path fill="#58595B" d="M115.156,157.105l7.968,32.514h0.183l8.061-32.514h11.326v44.284h-8.64v-12.865l0.732-17.215l-0.184-0.031
			l-8.486,30.111h-5.771l-8.396-29.868l-0.183,0.03l0.764,16.973v12.865h-8.641v-44.284H115.156z"/>
	</g>
	<g>
		<path fill="#6D6E71" d="M26.58,232.233c0-1.641-0.479-2.973-1.438-4.001c-0.958-1.026-2.644-1.933-5.057-2.718
			c-2.744-0.837-4.822-1.918-6.235-3.245c-1.413-1.324-2.12-3.101-2.12-5.325c0-2.294,0.79-4.169,2.368-5.626
			c1.579-1.455,3.616-2.183,6.111-2.183c2.62,0,4.726,0.857,6.318,2.575c1.593,1.716,2.368,3.811,2.326,6.284l-0.062,0.123h-2.337
			c0-1.991-0.556-3.624-1.665-4.893c-1.109-1.271-2.637-1.907-4.581-1.907c-1.889,0-3.356,0.529-4.405,1.587
			c-1.048,1.058-1.571,2.383-1.571,3.978c0,1.482,0.507,2.729,1.52,3.738c1.014,1.012,2.734,1.892,5.161,2.647
			c2.674,0.824,4.704,1.94,6.09,3.349c1.386,1.407,2.079,3.26,2.079,5.553c0,2.403-0.817,4.311-2.451,5.717
			c-1.634,1.409-3.733,2.113-6.298,2.113c-2.522,0-4.719-0.756-6.587-2.268c-1.867-1.511-2.768-3.701-2.698-6.572l0.041-0.124h2.316
			c0,2.349,0.679,4.08,2.037,5.192c1.357,1.112,2.988,1.67,4.891,1.67c1.875,0,3.385-0.518,4.529-1.551S26.58,233.942,26.58,232.233
			z"/>
		<path fill="#6D6E71" d="M48.473,230.852l0.063,0.124c-0.028,2.925-0.801,5.161-2.316,6.705c-1.518,1.547-3.606,2.319-6.268,2.319
			c-2.771,0-4.97-0.976-6.596-2.927c-1.628-1.95-2.44-4.732-2.44-8.344v-8.304c0-3.585,0.816-6.362,2.45-8.335
			c1.634-1.97,3.829-2.955,6.586-2.955c2.688,0,4.784,0.755,6.287,2.266s2.269,3.763,2.297,6.758l-0.063,0.123h-2.295
			c-0.07-2.375-0.621-4.131-1.654-5.263c-1.034-1.134-2.559-1.701-4.572-1.701c-2.067,0-3.681,0.778-4.839,2.333
			c-1.158,1.554-1.737,3.797-1.737,6.726v8.38c0,2.985,0.579,5.255,1.737,6.809c1.158,1.556,2.771,2.333,4.839,2.333
			c2.014,0,3.538-0.558,4.572-1.67c1.033-1.111,1.584-2.903,1.654-5.377H48.473z"/>
		<path fill="#6D6E71" d="M69.559,228.791c0,3.64-0.851,6.417-2.555,8.335c-1.702,1.915-4.035,2.874-6.999,2.874
			c-2.909,0-5.195-0.959-6.856-2.874c-1.662-1.918-2.492-4.695-2.492-8.335v-8.407c0-3.64,0.827-6.425,2.481-8.354
			c1.655-1.931,3.937-2.895,6.846-2.895c2.964,0,5.301,0.968,7.011,2.904s2.564,4.719,2.564,8.344V228.791z M67.099,220.323
			c0-2.968-0.615-5.199-1.842-6.696c-1.227-1.498-2.984-2.246-5.273-2.246c-2.22,0-3.922,0.748-5.108,2.246
			c-1.186,1.497-1.778,3.729-1.778,6.696v8.468c0,3.009,0.593,5.261,1.778,6.758c1.187,1.497,2.896,2.246,5.13,2.246
			c2.288,0,4.043-0.749,5.262-2.246c1.221-1.497,1.832-3.749,1.832-6.758V220.323z"/>
		<path fill="#6D6E71" d="M75.445,225.989v13.577h-2.481v-29.978h8.645c2.703,0,4.771,0.705,6.204,2.12
			c1.435,1.412,2.151,3.47,2.151,6.172c0,1.592-0.38,3.008-1.139,4.25c-0.759,1.241-1.834,2.156-3.227,2.746
			c1.531,0.468,2.63,1.307,3.299,2.518s1.003,2.716,1.003,4.519v2.826c0,0.936,0.091,1.773,0.27,2.518
			c0.18,0.742,0.483,1.347,0.91,1.816v0.493h-2.544c-0.429-0.495-0.722-1.186-0.879-2.065c-0.159-0.883-0.238-1.819-0.238-2.813
			v-2.747c0-1.819-0.461-3.267-1.385-4.341c-0.923-1.075-2.192-1.611-3.805-1.611H75.445z M75.445,223.888h5.874
			c2.123,0,3.677-0.539,4.661-1.618c0.987-1.078,1.48-2.544,1.48-4.398c0-1.964-0.483-3.476-1.448-4.533
			c-0.966-1.057-2.433-1.586-4.404-1.586h-6.163V223.888z"/>
		<path fill="#6D6E71" d="M97.255,239.566h-2.503v-29.998h2.503V239.566z"/>
		<path fill="#6D6E71" d="M120.844,239.566h-2.482l-13.442-25.116l-0.124,0.021v25.096h-2.502v-29.998h2.502l13.442,25.114
			l0.124-0.02v-25.095h2.482V239.566z"/>
		<path fill="#6D6E71" d="M143.419,235.486c-0.552,1.127-1.568,2.161-3.051,3.101c-1.481,0.942-3.366,1.413-5.655,1.413
			c-3.02,0-5.449-0.955-7.291-2.864c-1.84-1.91-2.76-4.65-2.76-8.221v-8.922c0-3.503,0.868-6.188,2.605-8.056
			c1.738-1.868,4.06-2.802,6.969-2.802c2.841,0,5.041,0.738,6.598,2.213c1.559,1.479,2.372,3.535,2.441,6.171l-0.041,0.125h-2.317
			c-0.083-2.019-0.675-3.578-1.777-4.677c-1.104-1.1-2.738-1.649-4.903-1.649c-2.191,0-3.921,0.739-5.189,2.22
			c-1.269,1.479-1.902,3.621-1.902,6.428v8.977c0,2.917,0.682,5.138,2.046,6.664c1.364,1.528,3.206,2.292,5.522,2.292
			c1.696,0,3.053-0.305,4.073-0.909c1.021-0.607,1.731-1.346,2.131-2.214v-7.818h-6.245v-2.163h8.747V235.486z"/>
	</g>
</g>
</svg>
