<?xml version="1.0" encoding="utf-8"?>
<!-- Generator: Adobe Illustrator 15.0.0, SVG Export Plug-In . SVG Version: 6.00 Build 0)  -->
<!DOCTYPE svg PUBLIC "-//W3C//DTD SVG 1.1//EN" "http://www.w3.org/Graphics/SVG/1.1/DTD/svg11.dtd">
<svg version="1.1" id="Layer_1" xmlns="http://www.w3.org/2000/svg" xmlns:xlink="http://www.w3.org/1999/xlink" x="0px" y="0px"
	 width="360px" height="240px" viewBox="0 0 360 240" enable-background="new 0 0 360 240" xml:space="preserve">
<g>
	<defs>
		<filter id="Adobe_OpacityMaskFilter" filterUnits="userSpaceOnUse" x="112.741" y="21.136" width="133.846" height="134.29">
			
				<feColorMatrix  type="matrix" values="-1 0 0 0 1  0 -1 0 0 1  0 0 -1 0 1  0 0 0 1 0" color-interpolation-filters="sRGB" result="source"/>
			<feFlood  style="flood-color:white;flood-opacity:1" result="back"/>
			<feBlend  in="source" in2="back" mode="normal"/>
		</filter>
	</defs>
	<mask maskUnits="userSpaceOnUse" x="112.741" y="21.136" width="133.846" height="134.29" id="SVGID_1_">
		<g filter="url(#Adobe_OpacityMaskFilter)">
			<path fill="#FFFFFF" d="M247.538,38.686h-49.51c-0.353-1.741-1.886-3.052-3.725-3.052h-28.899c-1.84,0-3.374,1.311-3.725,3.052
				H112.17v1.526h49.508c0.353,1.742,1.886,3.053,3.726,3.053h28.899c1.838,0,3.372-1.311,3.726-3.053h49.509V38.686z"/>
			<path fill="#FFFFFF" d="M247.538,55.218h-28.977c-0.352-1.741-1.886-3.052-3.725-3.052h-69.966c-1.838,0-3.372,1.311-3.725,3.052
				H112.17v1.526h28.975c0.354,1.742,1.887,3.053,3.726,3.053h69.966c1.838,0,3.373-1.311,3.726-3.053h28.976V55.218z"/>
			<path fill="#FFFFFF" d="M247.538,71.94h-18.311c-0.277-1.834-1.84-3.243-3.744-3.243h-91.259c-1.905,0-3.467,1.409-3.744,3.243
				h-18.31v1.526h18.387c0.423,1.643,1.897,2.861,3.667,2.861h91.259c1.769,0,3.244-1.219,3.667-2.861h18.388V71.94z"/>
			<path fill="#FFFFFF" d="M250.769,137.877h-52.741c-0.353-1.741-1.886-3.052-3.725-3.052h-28.899c-1.84,0-3.374,1.311-3.725,3.052
				h-52.741v1.526h52.74c0.353,1.742,1.886,3.052,3.726,3.052h28.899c1.838,0,3.372-1.311,3.726-3.052h52.74V137.877z"/>
			<path fill="#FFFFFF" d="M250.769,121.345h-32.208c-0.352-1.742-1.886-3.052-3.725-3.052h-69.966c-1.838,0-3.372,1.31-3.725,3.052
				h-32.208v1.526h32.207c0.353,1.741,1.886,3.052,3.726,3.052h69.966c1.839,0,3.374-1.312,3.726-3.052h32.207V121.345z"/>
			<path fill="#FFFFFF" d="M250.769,104.622H229.15c-0.423-1.643-1.898-2.86-3.667-2.86h-91.259c-1.77,0-3.244,1.218-3.667,2.86
				h-21.619v1.526h21.542c0.277,1.834,1.839,3.243,3.744,3.243h91.259c1.904,0,3.467-1.409,3.744-3.243h21.542V104.622z"/>
			<path fill="#FFFFFF" d="M250.769,88.282H230.73c-0.353-1.742-1.886-3.053-3.726-3.053h-94.301c-1.839,0-3.374,1.311-3.726,3.053
				h-20.039v1.525h20.039c0.353,1.742,1.887,3.052,3.726,3.052h94.301c1.839,0,3.373-1.31,3.725-3.052h20.04V88.282z"/>
		</g>
	</mask>
	<g mask="url(#SVGID_1_)">
		<ellipse fill="#05C1F1" cx="179.664" cy="88.282" rx="66.923" ry="67.144"/>
		<path fill="#00AAD4" d="M179.663,155.426c36.96,0,66.923-30.061,66.923-67.144H112.741
			C112.741,125.365,142.703,155.426,179.663,155.426z"/>
	</g>
	<g>
		<path fill="#58595B" d="M41.746,206.958c0-1.721-0.444-3.083-1.332-4.084c-0.889-1.003-2.452-1.99-4.692-2.961
			c-4.581-1.6-8.016-3.416-10.306-5.452c-2.291-2.034-3.435-4.884-3.435-8.548c0-3.624,1.332-6.575,3.995-8.852
			c2.664-2.279,6.063-3.417,10.2-3.417c4.197,0,7.607,1.271,10.23,3.811c2.623,2.541,3.894,5.745,3.814,9.612l-0.061,0.182h-8.354
			c0-2.023-0.505-3.664-1.513-4.919c-1.01-1.255-2.432-1.883-4.268-1.883c-1.715,0-3.052,0.521-4.01,1.563
			c-0.959,1.043-1.438,2.354-1.438,3.933c0,1.458,0.535,2.658,1.604,3.598c1.069,0.942,2.926,1.99,5.569,3.144
			c4.177,1.417,7.32,3.214,9.429,5.391c2.108,2.177,3.163,5.117,3.163,8.821c0,3.827-1.271,6.823-3.814,8.989
			s-5.922,3.25-10.14,3.25c-4.197,0-7.834-1.23-10.912-3.689c-3.078-2.46-4.565-5.987-4.464-10.584l0.061-0.182h8.384
			c0,2.733,0.575,4.697,1.725,5.892c1.15,1.195,2.885,1.792,5.206,1.792c1.816,0,3.164-0.486,4.041-1.458
			C41.308,209.935,41.746,208.619,41.746,206.958z"/>
		<path fill="#58595B" d="M83.441,202.494h0.182l4.752-28.212h8.354l-8.505,44.217h-8.021l-6.205-27.089h-0.182l-6.145,27.089
			h-7.991l-8.505-44.217h8.354l4.752,28.212h0.182l6.356-28.212h6.175L83.441,202.494z"/>
		<path fill="#58595B" d="M107.885,218.499h-8.566v-44.217h8.566V218.499z"/>
		<path fill="#58595B" d="M124.186,174.282l7.9,32.464h0.182l7.991-32.464h11.229v44.217h-8.566v-12.846l0.727-17.189l-0.182-0.03
			l-8.415,30.065h-5.721l-8.324-29.822l-0.182,0.03l0.757,16.946v12.846h-8.566v-44.217H124.186z"/>
		<path fill="#6D6E71" d="M178.05,207.21c0-2.3-0.668-4.171-2.001-5.611c-1.335-1.44-3.683-2.711-7.043-3.813
			c-3.821-1.175-6.716-2.692-8.684-4.551c-1.968-1.859-2.952-4.35-2.952-7.471c0-3.217,1.099-5.847,3.298-7.89
			c2.198-2.042,5.035-3.062,8.511-3.062c3.648,0,6.582,1.204,8.799,3.612c2.218,2.409,3.298,5.346,3.241,8.813l-0.087,0.175h-3.254
			c0-2.794-0.773-5.083-2.319-6.864c-1.546-1.782-3.672-2.674-6.38-2.674c-2.631,0-4.676,0.743-6.136,2.226
			c-1.458,1.483-2.189,3.342-2.189,5.578c0,2.081,0.706,3.829,2.118,5.245c1.411,1.416,3.806,2.654,7.187,3.713
			c3.725,1.156,6.552,2.721,8.482,4.696c1.93,1.975,2.895,4.571,2.895,7.788c0,3.372-1.138,6.045-3.413,8.02
			c-2.276,1.975-5.199,2.961-8.771,2.961c-3.514,0-6.572-1.059-9.174-3.178c-2.602-2.12-3.854-5.192-3.758-9.219l0.057-0.173h3.226
			c0,3.295,0.946,5.723,2.837,7.282c1.891,1.562,4.162,2.341,6.812,2.341c2.611,0,4.714-0.725,6.309-2.174
			C177.253,211.53,178.05,209.606,178.05,207.21z"/>
		<path fill="#6D6E71" d="M208.246,205.271l0.087,0.174c-0.039,4.103-1.114,7.239-3.226,9.407c-2.113,2.167-5.022,3.25-8.728,3.25
			c-3.859,0-6.923-1.367-9.188-4.103c-2.266-2.736-3.398-6.638-3.398-11.705v-11.646c0-5.029,1.137-8.925,3.413-11.69
			c2.275-2.764,5.333-4.146,9.173-4.146c3.745,0,6.664,1.06,8.756,3.178c2.093,2.12,3.158,5.28,3.197,9.479l-0.087,0.174h-3.196
			c-0.097-3.333-0.864-5.794-2.305-7.384c-1.44-1.589-3.562-2.385-6.366-2.385c-2.88,0-5.126,1.091-6.739,3.271
			c-1.613,2.181-2.419,5.327-2.419,9.437v11.75c0,4.189,0.807,7.373,2.419,9.552c1.613,2.181,3.859,3.271,6.739,3.271
			c2.804,0,4.926-0.78,6.366-2.34c1.44-1.561,2.208-4.074,2.305-7.544H208.246z"/>
		<path fill="#6D6E71" d="M237.318,202.381c0,5.105-1.185,9.002-3.557,11.689c-2.372,2.688-5.621,4.031-9.75,4.031
			c-4.052,0-7.235-1.343-9.549-4.031c-2.314-2.687-3.47-6.584-3.47-11.689V190.59c0-5.105,1.152-9.011,3.457-11.718
			c2.304-2.706,5.481-4.06,9.533-4.06c4.128,0,7.384,1.357,9.764,4.074c2.381,2.716,3.571,6.617,3.571,11.704V202.381z
			 M233.892,190.503c0-4.161-0.854-7.292-2.564-9.393c-1.709-2.099-4.158-3.149-7.345-3.149c-3.092,0-5.463,1.05-7.114,3.149
			c-1.652,2.101-2.478,5.231-2.478,9.393v11.877c0,4.22,0.826,7.379,2.478,9.479c1.651,2.101,4.033,3.151,7.143,3.151
			c3.187,0,5.631-1.05,7.33-3.151c1.7-2.099,2.549-5.258,2.549-9.479V190.503z"/>
		<path fill="#6D6E71" d="M245.222,198.45v19.045h-3.456v-42.048h12.04c3.763,0,6.644,0.991,8.641,2.974
			c1.997,1.981,2.996,4.867,2.996,8.658c0,2.232-0.528,4.219-1.584,5.96c-1.056,1.742-2.554,3.026-4.493,3.854
			c2.13,0.656,3.663,1.832,4.594,3.531c0.931,1.697,1.397,3.81,1.397,6.336v3.964c0,1.312,0.124,2.489,0.374,3.531
			c0.249,1.041,0.671,1.891,1.267,2.546v0.694h-3.543c-0.595-0.695-1.003-1.661-1.224-2.898c-0.222-1.236-0.331-2.551-0.331-3.942
			v-3.856c0-2.551-0.645-4.58-1.93-6.087c-1.287-1.507-3.053-2.261-5.3-2.261H245.222z M245.222,195.503h8.18
			c2.957,0,5.122-0.756,6.495-2.269c1.373-1.513,2.059-3.57,2.059-6.17c0-2.754-0.672-4.875-2.015-6.358
			c-1.345-1.483-3.39-2.226-6.136-2.226h-8.583V195.503z"/>
		<path fill="#6D6E71" d="M275.303,217.495h-3.485v-42.077h3.485V217.495z"/>
		<path fill="#6D6E71" d="M307.86,217.495h-3.457l-18.721-35.228l-0.174,0.029v35.199h-3.484v-42.077h3.484l18.723,35.229
			l0.172-0.03v-35.199h3.457V217.495z"/>
		<path fill="#6D6E71" d="M339.008,211.773c-0.77,1.58-2.186,3.03-4.249,4.35c-2.064,1.319-4.69,1.979-7.878,1.979
			c-4.206,0-7.59-1.338-10.152-4.016c-2.564-2.679-3.846-6.521-3.846-11.53v-12.514c0-4.913,1.21-8.679,3.63-11.299
			c2.419-2.621,5.654-3.93,9.706-3.93c3.955,0,7.019,1.035,9.188,3.106c2.169,2.071,3.302,4.956,3.397,8.655l-0.057,0.173h-3.226
			c-0.115-2.832-0.941-5.019-2.479-6.561c-1.535-1.54-3.812-2.312-6.825-2.312c-3.054,0-5.463,1.039-7.23,3.112
			c-1.766,2.074-2.65,5.08-2.65,9.016v12.59c0,4.092,0.951,7.208,2.853,9.35c1.9,2.142,4.464,3.213,7.689,3.213
			c2.361,0,4.254-0.425,5.675-1.276c1.42-0.851,2.41-1.886,2.967-3.104v-10.965h-8.7v-3.034h12.186V211.773z"/>
	</g>
</g>
</svg>
