<?xml version="1.0" encoding="utf-8"?>
<!-- Generator: Adobe Illustrator 15.0.0, SVG Export Plug-In . SVG Version: 6.00 Build 0)  -->
<!DOCTYPE svg PUBLIC "-//W3C//DTD SVG 1.1//EN" "http://www.w3.org/Graphics/SVG/1.1/DTD/svg11.dtd">
<svg version="1.1" id="Layer_1" xmlns="http://www.w3.org/2000/svg" xmlns:xlink="http://www.w3.org/1999/xlink" x="0px" y="0px"
	 width="485px" height="154px" viewBox="0 0 485 154" enable-background="new 0 0 485 154" xml:space="preserve">
<g>
	<path fill="#58595B" d="M177.771,84.054c0-1.718-0.444-3.077-1.332-4.076c-0.889-1.001-2.452-1.985-4.691-2.955
		c-4.581-1.596-8.016-3.409-10.305-5.439c-2.291-2.03-3.435-4.874-3.435-8.53c0-3.616,1.332-6.561,3.995-8.833
		c2.664-2.273,6.063-3.409,10.199-3.409c4.196,0,7.606,1.268,10.229,3.803c2.623,2.536,3.894,5.732,3.813,9.591l-0.061,0.182h-8.353
		c0-2.02-0.505-3.656-1.513-4.909c-1.01-1.252-2.432-1.878-4.268-1.878c-1.715,0-3.052,0.521-4.01,1.561
		c-0.959,1.041-1.438,2.349-1.438,3.924c0,1.455,0.534,2.651,1.604,3.591c1.069,0.939,2.925,1.985,5.568,3.136
		c4.177,1.415,7.319,3.208,9.428,5.379c2.107,2.172,3.162,5.106,3.162,8.803c0,3.818-1.271,6.808-3.813,8.969
		c-2.542,2.162-5.922,3.243-10.139,3.243c-4.197,0-7.833-1.228-10.91-3.681c-3.077-2.456-4.565-5.975-4.464-10.562l0.061-0.182
		h8.383c0,2.728,0.575,4.687,1.725,5.879c1.15,1.192,2.885,1.788,5.206,1.788c1.816,0,3.163-0.485,4.04-1.454
		C177.333,87.024,177.771,85.711,177.771,84.054z"/>
	<path fill="#58595B" d="M219.462,79.6h0.182l4.751-28.152h8.353l-8.504,44.122h-8.02l-6.204-27.03h-0.182l-6.144,27.03h-7.99
		L187.2,51.448h8.353l4.751,28.152h0.182l6.355-28.152h6.174L219.462,79.6z"/>
	<path fill="#58595B" d="M243.903,95.569h-8.565V51.448h8.565V95.569z"/>
	<path fill="#58595B" d="M260.202,51.448l7.899,32.394h0.182l7.99-32.394H287.5v44.122h-8.565V82.751l0.727-17.151l-0.182-0.03
		l-8.414,30h-5.72l-8.323-29.758l-0.182,0.03l0.757,16.909v12.818h-8.565V51.448H260.202z"/>
	<path fill="#6D6E70" d="M314.061,84.305c0-2.295-0.668-4.162-2.002-5.599c-1.336-1.437-3.682-2.705-7.042-3.805
		c-3.821-1.172-6.716-2.686-8.683-4.542c-1.968-1.855-2.953-4.34-2.953-7.455c0-3.21,1.1-5.834,3.298-7.872
		c2.198-2.038,5.035-3.057,8.51-3.057c3.648,0,6.58,1.202,8.799,3.605s3.299,5.334,3.24,8.795l-0.086,0.173h-3.256
		c0-2.788-0.773-5.071-2.318-6.849c-1.545-1.778-3.672-2.667-6.379-2.667c-2.631,0-4.675,0.74-6.135,2.22
		c-1.458,1.48-2.189,3.336-2.189,5.565c0,2.076,0.706,3.821,2.118,5.234c1.411,1.412,3.806,2.648,7.186,3.705
		c3.725,1.153,6.552,2.715,8.481,4.686c1.93,1.971,2.895,4.562,2.895,7.771c0,3.365-1.137,6.032-3.412,8.003
		c-2.277,1.971-5.2,2.955-8.771,2.955c-3.514,0-6.571-1.057-9.173-3.171c-2.602-2.116-3.854-5.181-3.758-9.2l0.057-0.173h3.226
		c0,3.288,0.946,5.71,2.837,7.267c1.891,1.558,4.162,2.336,6.812,2.336c2.61,0,4.714-0.723,6.308-2.17
		S314.061,86.696,314.061,84.305z"/>
	<path fill="#6D6E70" d="M344.252,82.37l0.086,0.174c-0.039,4.094-1.111,7.223-3.225,9.386c-2.113,2.163-5.02,3.244-8.727,3.244
		c-3.857,0-6.922-1.365-9.186-4.094c-2.268-2.73-3.4-6.624-3.4-11.68V67.779c0-5.018,1.139-8.906,3.414-11.664
		c2.273-2.759,5.332-4.139,9.172-4.139c3.746,0,6.662,1.058,8.756,3.172c2.094,2.115,3.156,5.268,3.195,9.458l-0.086,0.173h-3.195
		c-0.098-3.326-0.865-5.781-2.305-7.368c-1.441-1.585-3.561-2.378-6.365-2.378c-2.879,0-5.125,1.088-6.738,3.263
		c-1.613,2.176-2.418,5.315-2.418,9.416v11.725c0,4.18,0.805,7.357,2.418,9.532c1.613,2.176,3.859,3.264,6.738,3.264
		c2.805,0,4.924-0.778,6.365-2.335c1.439-1.557,2.207-4.065,2.305-7.528H344.252z"/>
	<path fill="#6D6E70" d="M373.322,79.486c0,5.095-1.186,8.983-3.557,11.665c-2.371,2.682-5.621,4.022-9.748,4.022
		c-4.051,0-7.234-1.34-9.547-4.022c-2.314-2.682-3.471-6.57-3.471-11.665V67.721c0-5.094,1.152-8.992,3.457-11.693
		c2.303-2.701,5.48-4.052,9.531-4.052c4.127,0,7.383,1.355,9.764,4.066c2.379,2.71,3.57,6.604,3.57,11.679V79.486z M369.896,67.635
		c0-4.153-0.855-7.276-2.564-9.372c-1.709-2.095-4.156-3.143-7.344-3.143c-3.092,0-5.463,1.048-7.113,3.143
		c-1.652,2.096-2.477,5.219-2.477,9.372v11.851c0,4.211,0.824,7.364,2.477,9.458c1.65,2.096,4.033,3.144,7.143,3.144
		c3.188,0,5.629-1.048,7.328-3.144c1.701-2.095,2.551-5.247,2.551-9.458V67.635z"/>
	<path fill="#6D6E70" d="M381.225,75.565v19.003h-3.457V52.611h12.041c3.762,0,6.643,0.989,8.639,2.967s2.996,4.857,2.996,8.64
		c0,2.227-0.529,4.21-1.584,5.947c-1.057,1.737-2.555,3.02-4.492,3.845c2.129,0.654,3.66,1.829,4.592,3.523
		c0.932,1.693,1.398,3.801,1.398,6.322v3.956c0,1.309,0.123,2.484,0.373,3.523s0.672,1.887,1.268,2.541v0.693h-3.543
		c-0.596-0.694-1.004-1.658-1.225-2.893c-0.221-1.234-0.33-2.545-0.33-3.934v-3.848c0-2.545-0.645-4.57-1.93-6.074
		c-1.287-1.503-3.053-2.255-5.301-2.255H381.225z M381.225,72.624h8.18c2.955,0,5.121-0.754,6.494-2.264
		c1.371-1.509,2.059-3.562,2.059-6.157c0-2.749-0.672-4.864-2.014-6.344c-1.346-1.48-3.391-2.22-6.135-2.22h-8.584V72.624z"/>
	<path fill="#6D6E70" d="M411.301,94.568h-3.482V52.582h3.482V94.568z"/>
	<path fill="#6D6E70" d="M443.855,94.568H440.4l-18.719-35.152l-0.174,0.029v35.124h-3.486V52.582h3.486l18.721,35.152l0.172-0.029
		V52.582h3.455V94.568z"/>
	<path fill="#6D6E70" d="M475,88.858c-0.768,1.577-2.184,3.023-4.248,4.34s-4.689,1.975-7.875,1.975
		c-4.207,0-7.59-1.335-10.154-4.008c-2.564-2.673-3.844-6.507-3.844-11.505V67.173c0-4.902,1.211-8.66,3.629-11.275
		c2.42-2.614,5.652-3.922,9.705-3.922c3.955,0,7.018,1.034,9.188,3.101s3.303,4.945,3.398,8.636l-0.057,0.173h-3.227
		c-0.115-2.826-0.941-5.008-2.477-6.546c-1.537-1.538-3.813-2.307-6.826-2.307c-3.053,0-5.461,1.035-7.229,3.105
		s-2.65,5.068-2.65,8.997v12.563c0,4.083,0.951,7.192,2.852,9.33c1.9,2.137,4.465,3.206,7.691,3.206c2.359,0,4.25-0.424,5.672-1.274
		c1.422-0.849,2.408-1.881,2.967-3.098V76.92h-8.697v-3.028H475V88.858z"/>
</g>
<g>
	<g>
		<path fill="#04C0F0" d="M38.401,43.749c0.353-1.737,1.887-3.045,3.725-3.045h69.958c1.838,0,3.372,1.308,3.725,3.045h19.338
			c-3.132-5.529-7.021-10.567-11.534-14.974H95.278c-0.353,1.738-1.886,3.046-3.725,3.046H62.657c-1.839,0-3.373-1.308-3.725-3.046
			H30.217c-4.514,4.406-8.402,9.444-11.534,14.974H38.401z"/>
		<path fill="#04C0F0" d="M126.396,61.958c-0.424,1.64-1.898,2.855-3.667,2.855H31.481c-1.77,0-3.243-1.216-3.667-2.855H11.655
			C10.584,66.717,10,71.66,10,76.742h16.235c0.352-1.738,1.886-3.046,3.725-3.046h94.291c1.839,0,3.373,1.308,3.725,3.046h15.855
			c0-5.083-0.584-10.025-1.655-14.784H126.396z"/>
		<path fill="#04C0F0" d="M58.933,27.252c0.352-1.737,1.885-3.045,3.725-3.045h28.896c1.838,0,3.373,1.308,3.725,3.045h26.74
			C110.122,16.377,94.293,9.741,76.915,9.741s-33.207,6.636-45.103,17.511H58.933z"/>
		<path fill="#04C0F0" d="M27.737,60.435c0.277-1.829,1.839-3.235,3.744-3.235h91.249c1.904,0,3.467,1.406,3.744,3.235h15.351
			c-1.333-5.337-3.306-10.419-5.832-15.163h-20.184c-0.353,1.738-1.886,3.046-3.725,3.046H42.126c-1.839,0-3.373-1.308-3.725-3.046
			H17.838c-2.526,4.744-4.499,9.826-5.832,15.163H27.737z"/>
	</g>
	<g>
		<path fill="#00A9D3" d="M95.278,127.753c-0.353,1.738-1.886,3.046-3.725,3.046H62.657c-1.839,0-3.373-1.308-3.725-3.046H33.557
			c11.68,9.963,26.812,15.988,43.358,15.988c16.546,0,31.678-6.025,43.358-15.988H95.278z"/>
		<path fill="#00A9D3" d="M126.474,94.57c-0.277,1.83-1.84,3.235-3.744,3.235H31.481c-1.905,0-3.467-1.406-3.744-3.235H12.414
			c1.473,5.354,3.591,10.436,6.268,15.163h19.719c0.353-1.738,1.887-3.045,3.725-3.045h69.958c1.838,0,3.372,1.307,3.725,3.045
			h19.339c2.677-4.727,4.795-9.81,6.269-15.163H126.474z"/>
		<path fill="#00A9D3" d="M115.809,111.256c-0.352,1.737-1.886,3.046-3.725,3.046H42.126c-1.839,0-3.373-1.309-3.725-3.046H19.557
			c3.351,5.57,7.485,10.613,12.254,14.974h27.121c0.352-1.737,1.885-3.045,3.725-3.045h28.896c1.838,0,3.373,1.308,3.725,3.045
			h26.74c4.77-4.36,8.904-9.403,12.255-14.974H115.809z"/>
		<path fill="#00A9D3" d="M127.976,78.264c-0.353,1.738-1.887,3.045-3.725,3.045H29.96c-1.838,0-3.373-1.307-3.725-3.045H10.039
			c0.114,5.087,0.781,10.037,1.967,14.783h15.809c0.424-1.64,1.897-2.854,3.667-2.854h91.249c1.769,0,3.243,1.215,3.667,2.854
			h15.429c1.186-4.747,1.854-9.696,1.967-14.783H127.976z"/>
	</g>
</g>
</svg>
